<svg xmlns="http://www.w3.org/2000/svg" width="40" height="40" fill="none"><path fill="#fff" fill-rule="evenodd" d="M40 20c0 11.046-8.954 20-20 20S0 31.046 0 20 8.954 0 20 0s20 8.954 20 20Zm-16.807 2.133A3.84 3.84 0 0 0 23.84 20 3.852 3.852 0 0 0 20 16.16a3.84 3.84 0 1 0 3.193 5.973ZM32 25.28V14.72A6.72 6.72 0 0 0 25.28 8H14.72A6.72 6.72 0 0 0 8 14.72v10.56A6.72 6.72 0 0 0 14.72 32h10.56A6.72 6.72 0 0 0 32 25.28Zm-7.21-8.48a5.76 5.76 0 1 1-9.58 6.4 5.76 5.76 0 0 1 9.58-6.4Zm2.647-3.84a1.44 1.44 0 1 1-2.395 1.6 1.44 1.44 0 0 1 2.395-1.6Z" clip-rule="evenodd"/></svg>