<svg xmlns="http://www.w3.org/2000/svg" width="40" height="40" fill="none"><path fill="#fff" fill-rule="evenodd" d="M40 20c0 11.046-8.954 20-20 20S0 31.046 0 20 8.954 0 20 0s20 8.954 20 20Zm-10.822-5.914A9.83 9.83 0 0 0 32 13.294a9.836 9.836 0 0 1-2.455 2.559c.011.218.011.424.011.642 0 6.505-4.967 14.008-14.007 14.008-2.776 0-5.37-.815-7.549-2.214.39.046.78.069 1.17.069a9.776 9.776 0 0 0 6.115-2.111 4.91 4.91 0 0 1-4.589-3.42 4.84 4.84 0 0 0 2.214-.08 4.925 4.925 0 0 1-3.946-4.83v-.034c.665.345 1.422.574 2.237.574-1.331-.86-2.191-2.375-2.191-4.084 0-.895.24-1.744.665-2.467a13.99 13.99 0 0 0 10.141 5.14 5.115 5.115 0 0 1-.126-1.124c0-2.72 2.203-4.922 4.899-4.922 1.445 0 2.719.574 3.625 1.56a9.91 9.91 0 0 0 3.12-1.204 4.931 4.931 0 0 1-2.156 2.73Z" clip-rule="evenodd"/></svg>