<svg xmlns="http://www.w3.org/2000/svg" width="40" height="40" fill="none"><path fill="#fff" fill-rule="evenodd" d="M20 40c11.046 0 20-8.954 20-20S31.046 0 20 0 0 8.954 0 20s8.954 20 20 20ZM31.219 8.781c-.5-.5-1.178-.781-1.886-.781H10.667A2.667 2.667 0 0 0 8 10.667v18.666A2.667 2.667 0 0 0 10.667 32h18.666A2.667 2.667 0 0 0 32 29.333V10.667c0-.708-.281-1.386-.781-1.886ZM28.667 21.6v7.067h-3.72v-6.574a1.867 1.867 0 0 0-1.867-1.866 1.86 1.86 0 0 0-1.853 1.866v6.574h-3.72v-11.16h3.72v1.48c.64-1.04 1.96-1.734 3.093-1.734a4.347 4.347 0 0 1 4.347 4.347Zm-13.91-6.843a2.248 2.248 0 0 1-3.837-1.584 2.253 2.253 0 0 1 2.253-2.253 2.248 2.248 0 0 1 1.584 3.837Zm.27 2.75v11.16h-3.694v-11.16h3.694Z" clip-rule="evenodd"/></svg>